<mxfile host="app.diagrams.net" modified="2022-10-31T11:43:12.778Z" agent="5.0 (Windows NT 10.0; Win64; x64) AppleWebKit/537.36 (KHTML, like Gecko) Chrome/107.0.0.0 Safari/537.36 Edg/107.0.1418.26" etag="psx8SLR-crHyYKwTSMzx" version="20.5.1" type="github">
  <diagram name="Page-1" id="19d8dcba-68ad-dc05-1034-9cf7b2a963f6">
    <mxGraphModel dx="1422" dy="762" grid="1" gridSize="10" guides="1" tooltips="1" connect="1" arrows="1" fold="1" page="1" pageScale="1" pageWidth="1100" pageHeight="850" background="none" math="0" shadow="0">
      <root>
        <mxCell id="0" />
        <mxCell id="1" parent="0" />
        <mxCell id="yHmcafbxzyrADyAFOcyu-5" style="edgeStyle=orthogonalEdgeStyle;shape=link;rounded=0;orthogonalLoop=1;jettySize=auto;html=1;exitX=0.5;exitY=1;exitDx=0;exitDy=0;entryX=0.5;entryY=0;entryDx=0;entryDy=0;fontSize=17;" edge="1" parent="1" source="yHmcafbxzyrADyAFOcyu-1" target="yHmcafbxzyrADyAFOcyu-2">
          <mxGeometry relative="1" as="geometry" />
        </mxCell>
        <mxCell id="yHmcafbxzyrADyAFOcyu-1" value="基于SpringCloud的&lt;br style=&quot;font-size: 17px;&quot;&gt;微服务医院预约挂号系统" style="rounded=0;whiteSpace=wrap;html=1;fontStyle=1;fontSize=17;" vertex="1" parent="1">
          <mxGeometry x="440" y="50" width="240" height="80" as="geometry" />
        </mxCell>
        <mxCell id="yHmcafbxzyrADyAFOcyu-2" value="管理员" style="whiteSpace=wrap;html=1;fontSize=17;rounded=0;fontStyle=1;" vertex="1" parent="1">
          <mxGeometry x="320" y="200" width="120" height="60" as="geometry" />
        </mxCell>
        <mxCell id="yHmcafbxzyrADyAFOcyu-6" style="edgeStyle=orthogonalEdgeStyle;shape=link;rounded=0;orthogonalLoop=1;jettySize=auto;html=1;exitX=0.5;exitY=0;exitDx=0;exitDy=0;entryX=0.5;entryY=1;entryDx=0;entryDy=0;fontSize=17;" edge="1" parent="1" source="yHmcafbxzyrADyAFOcyu-3" target="yHmcafbxzyrADyAFOcyu-1">
          <mxGeometry relative="1" as="geometry" />
        </mxCell>
        <mxCell id="yHmcafbxzyrADyAFOcyu-3" value="普通用户" style="whiteSpace=wrap;html=1;fontSize=17;rounded=0;fontStyle=1;" vertex="1" parent="1">
          <mxGeometry x="680" y="200" width="120" height="60" as="geometry" />
        </mxCell>
        <mxCell id="yHmcafbxzyrADyAFOcyu-17" style="edgeStyle=orthogonalEdgeStyle;shape=link;rounded=0;orthogonalLoop=1;jettySize=auto;html=1;exitX=0.5;exitY=0;exitDx=0;exitDy=0;entryX=0.5;entryY=1;entryDx=0;entryDy=0;fontSize=17;" edge="1" parent="1" source="yHmcafbxzyrADyAFOcyu-7" target="yHmcafbxzyrADyAFOcyu-3">
          <mxGeometry relative="1" as="geometry" />
        </mxCell>
        <mxCell id="yHmcafbxzyrADyAFOcyu-7" value="用户认证" style="rounded=0;whiteSpace=wrap;html=1;fontSize=17;" vertex="1" parent="1">
          <mxGeometry x="600" y="320" width="30" height="170" as="geometry" />
        </mxCell>
        <mxCell id="yHmcafbxzyrADyAFOcyu-18" style="edgeStyle=orthogonalEdgeStyle;shape=link;rounded=0;orthogonalLoop=1;jettySize=auto;html=1;exitX=0.5;exitY=0;exitDx=0;exitDy=0;fontSize=17;" edge="1" parent="1" source="yHmcafbxzyrADyAFOcyu-9">
          <mxGeometry relative="1" as="geometry">
            <mxPoint x="740" y="260" as="targetPoint" />
          </mxGeometry>
        </mxCell>
        <mxCell id="yHmcafbxzyrADyAFOcyu-9" value="浏览资讯" style="rounded=0;whiteSpace=wrap;html=1;fontSize=17;" vertex="1" parent="1">
          <mxGeometry x="650" y="320" width="30" height="170" as="geometry" />
        </mxCell>
        <mxCell id="yHmcafbxzyrADyAFOcyu-19" style="edgeStyle=orthogonalEdgeStyle;shape=link;rounded=0;orthogonalLoop=1;jettySize=auto;html=1;exitX=0.5;exitY=0;exitDx=0;exitDy=0;fontSize=17;" edge="1" parent="1" source="yHmcafbxzyrADyAFOcyu-10">
          <mxGeometry relative="1" as="geometry">
            <mxPoint x="740" y="260" as="targetPoint" />
          </mxGeometry>
        </mxCell>
        <mxCell id="yHmcafbxzyrADyAFOcyu-10" value="查询医院&lt;br&gt;等信息" style="rounded=0;whiteSpace=wrap;html=1;fontSize=17;" vertex="1" parent="1">
          <mxGeometry x="700" y="320" width="30" height="170" as="geometry" />
        </mxCell>
        <mxCell id="yHmcafbxzyrADyAFOcyu-20" style="edgeStyle=orthogonalEdgeStyle;shape=link;rounded=0;orthogonalLoop=1;jettySize=auto;html=1;exitX=0.5;exitY=0;exitDx=0;exitDy=0;fontSize=17;" edge="1" parent="1" source="yHmcafbxzyrADyAFOcyu-11">
          <mxGeometry relative="1" as="geometry">
            <mxPoint x="740" y="260" as="targetPoint" />
          </mxGeometry>
        </mxCell>
        <mxCell id="yHmcafbxzyrADyAFOcyu-11" value="查询订单" style="rounded=0;whiteSpace=wrap;html=1;fontSize=17;" vertex="1" parent="1">
          <mxGeometry x="750" y="320" width="30" height="170" as="geometry" />
        </mxCell>
        <mxCell id="yHmcafbxzyrADyAFOcyu-21" style="edgeStyle=orthogonalEdgeStyle;shape=link;rounded=0;orthogonalLoop=1;jettySize=auto;html=1;exitX=0.5;exitY=0;exitDx=0;exitDy=0;fontSize=17;" edge="1" parent="1" source="yHmcafbxzyrADyAFOcyu-12">
          <mxGeometry relative="1" as="geometry">
            <mxPoint x="740" y="260" as="targetPoint" />
          </mxGeometry>
        </mxCell>
        <mxCell id="yHmcafbxzyrADyAFOcyu-12" value="订单缴费" style="rounded=0;whiteSpace=wrap;html=1;fontSize=17;" vertex="1" parent="1">
          <mxGeometry x="800" y="320" width="30" height="170" as="geometry" />
        </mxCell>
        <mxCell id="yHmcafbxzyrADyAFOcyu-22" style="edgeStyle=orthogonalEdgeStyle;shape=link;rounded=0;orthogonalLoop=1;jettySize=auto;html=1;exitX=0.5;exitY=0;exitDx=0;exitDy=0;fontSize=17;" edge="1" parent="1" source="yHmcafbxzyrADyAFOcyu-13">
          <mxGeometry relative="1" as="geometry">
            <mxPoint x="740" y="260" as="targetPoint" />
          </mxGeometry>
        </mxCell>
        <mxCell id="yHmcafbxzyrADyAFOcyu-13" value="预约挂号" style="rounded=0;whiteSpace=wrap;html=1;fontSize=17;" vertex="1" parent="1">
          <mxGeometry x="850" y="320" width="30" height="170" as="geometry" />
        </mxCell>
        <mxCell id="yHmcafbxzyrADyAFOcyu-23" style="edgeStyle=orthogonalEdgeStyle;shape=link;rounded=0;orthogonalLoop=1;jettySize=auto;html=1;exitX=0.5;exitY=0;exitDx=0;exitDy=0;entryX=0.5;entryY=1;entryDx=0;entryDy=0;fontSize=17;" edge="1" parent="1" source="yHmcafbxzyrADyAFOcyu-14" target="yHmcafbxzyrADyAFOcyu-3">
          <mxGeometry relative="1" as="geometry" />
        </mxCell>
        <mxCell id="yHmcafbxzyrADyAFOcyu-14" value="留言反馈" style="rounded=0;whiteSpace=wrap;html=1;fontSize=17;" vertex="1" parent="1">
          <mxGeometry x="900" y="320" width="30" height="170" as="geometry" />
        </mxCell>
        <mxCell id="yHmcafbxzyrADyAFOcyu-24" style="edgeStyle=orthogonalEdgeStyle;shape=link;rounded=0;orthogonalLoop=1;jettySize=auto;html=1;exitX=0.5;exitY=0;exitDx=0;exitDy=0;entryX=0.5;entryY=1;entryDx=0;entryDy=0;fontSize=17;" edge="1" parent="1" source="yHmcafbxzyrADyAFOcyu-15" target="yHmcafbxzyrADyAFOcyu-3">
          <mxGeometry relative="1" as="geometry" />
        </mxCell>
        <mxCell id="yHmcafbxzyrADyAFOcyu-15" value="收藏&lt;br&gt;&lt;br&gt;评论&lt;br&gt;&lt;br&gt;历史" style="rounded=0;whiteSpace=wrap;html=1;fontSize=17;" vertex="1" parent="1">
          <mxGeometry x="950" y="320" width="30" height="170" as="geometry" />
        </mxCell>
        <mxCell id="yHmcafbxzyrADyAFOcyu-25" style="edgeStyle=orthogonalEdgeStyle;shape=link;rounded=0;orthogonalLoop=1;jettySize=auto;html=1;exitX=0.5;exitY=0;exitDx=0;exitDy=0;fontSize=17;" edge="1" parent="1" source="yHmcafbxzyrADyAFOcyu-16">
          <mxGeometry relative="1" as="geometry">
            <mxPoint x="740" y="260" as="targetPoint" />
          </mxGeometry>
        </mxCell>
        <mxCell id="yHmcafbxzyrADyAFOcyu-16" value="修改个人信息" style="rounded=0;whiteSpace=wrap;html=1;fontSize=17;" vertex="1" parent="1">
          <mxGeometry x="1000" y="320" width="30" height="170" as="geometry" />
        </mxCell>
        <mxCell id="yHmcafbxzyrADyAFOcyu-42" style="edgeStyle=orthogonalEdgeStyle;shape=link;rounded=0;orthogonalLoop=1;jettySize=auto;html=1;exitX=0.5;exitY=0;exitDx=0;exitDy=0;entryX=0.5;entryY=1;entryDx=0;entryDy=0;fontSize=17;" edge="1" parent="1" source="yHmcafbxzyrADyAFOcyu-26" target="yHmcafbxzyrADyAFOcyu-2">
          <mxGeometry relative="1" as="geometry" />
        </mxCell>
        <mxCell id="yHmcafbxzyrADyAFOcyu-26" value="反馈管理" style="rounded=0;whiteSpace=wrap;html=1;fontSize=17;" vertex="1" parent="1">
          <mxGeometry x="480" y="320" width="30" height="170" as="geometry" />
        </mxCell>
        <mxCell id="yHmcafbxzyrADyAFOcyu-41" style="edgeStyle=orthogonalEdgeStyle;shape=link;rounded=0;orthogonalLoop=1;jettySize=auto;html=1;exitX=0.5;exitY=0;exitDx=0;exitDy=0;entryX=0.5;entryY=1;entryDx=0;entryDy=0;fontSize=17;" edge="1" parent="1" source="yHmcafbxzyrADyAFOcyu-28" target="yHmcafbxzyrADyAFOcyu-2">
          <mxGeometry relative="1" as="geometry" />
        </mxCell>
        <mxCell id="yHmcafbxzyrADyAFOcyu-28" value="用户管理" style="rounded=0;whiteSpace=wrap;html=1;fontSize=17;" vertex="1" parent="1">
          <mxGeometry x="430" y="320" width="30" height="170" as="geometry" />
        </mxCell>
        <mxCell id="yHmcafbxzyrADyAFOcyu-40" style="edgeStyle=orthogonalEdgeStyle;shape=link;rounded=0;orthogonalLoop=1;jettySize=auto;html=1;exitX=0.5;exitY=0;exitDx=0;exitDy=0;fontSize=17;" edge="1" parent="1" source="yHmcafbxzyrADyAFOcyu-29">
          <mxGeometry relative="1" as="geometry">
            <mxPoint x="380" y="260" as="targetPoint" />
          </mxGeometry>
        </mxCell>
        <mxCell id="yHmcafbxzyrADyAFOcyu-29" value="医院等信息管理" style="rounded=0;whiteSpace=wrap;html=1;fontSize=17;" vertex="1" parent="1">
          <mxGeometry x="380" y="320" width="30" height="170" as="geometry" />
        </mxCell>
        <mxCell id="yHmcafbxzyrADyAFOcyu-39" style="edgeStyle=orthogonalEdgeStyle;shape=link;rounded=0;orthogonalLoop=1;jettySize=auto;html=1;exitX=0.5;exitY=0;exitDx=0;exitDy=0;entryX=0.5;entryY=1;entryDx=0;entryDy=0;fontSize=17;" edge="1" parent="1" source="yHmcafbxzyrADyAFOcyu-30" target="yHmcafbxzyrADyAFOcyu-2">
          <mxGeometry relative="1" as="geometry" />
        </mxCell>
        <mxCell id="yHmcafbxzyrADyAFOcyu-30" value="轮播图设置" style="rounded=0;whiteSpace=wrap;html=1;fontSize=17;" vertex="1" parent="1">
          <mxGeometry x="330" y="320" width="30" height="170" as="geometry" />
        </mxCell>
        <mxCell id="yHmcafbxzyrADyAFOcyu-38" style="edgeStyle=orthogonalEdgeStyle;shape=link;rounded=0;orthogonalLoop=1;jettySize=auto;html=1;exitX=0.5;exitY=0;exitDx=0;exitDy=0;entryX=0.5;entryY=1;entryDx=0;entryDy=0;fontSize=17;" edge="1" parent="1" source="yHmcafbxzyrADyAFOcyu-31" target="yHmcafbxzyrADyAFOcyu-2">
          <mxGeometry relative="1" as="geometry" />
        </mxCell>
        <mxCell id="yHmcafbxzyrADyAFOcyu-31" value="发布&lt;br&gt;&lt;br&gt;编辑&lt;br&gt;资讯" style="rounded=0;whiteSpace=wrap;html=1;fontSize=17;" vertex="1" parent="1">
          <mxGeometry x="280" y="320" width="30" height="170" as="geometry" />
        </mxCell>
        <mxCell id="yHmcafbxzyrADyAFOcyu-37" style="edgeStyle=orthogonalEdgeStyle;shape=link;rounded=0;orthogonalLoop=1;jettySize=auto;html=1;exitX=0.5;exitY=0;exitDx=0;exitDy=0;fontSize=17;" edge="1" parent="1" source="yHmcafbxzyrADyAFOcyu-32">
          <mxGeometry relative="1" as="geometry">
            <mxPoint x="380" y="260" as="targetPoint" />
          </mxGeometry>
        </mxCell>
        <mxCell id="yHmcafbxzyrADyAFOcyu-32" value="评论审核&lt;br&gt;管理" style="rounded=0;whiteSpace=wrap;html=1;fontSize=17;" vertex="1" parent="1">
          <mxGeometry x="230" y="320" width="30" height="170" as="geometry" />
        </mxCell>
        <mxCell id="yHmcafbxzyrADyAFOcyu-36" style="edgeStyle=orthogonalEdgeStyle;shape=link;rounded=0;orthogonalLoop=1;jettySize=auto;html=1;exitX=0.5;exitY=0;exitDx=0;exitDy=0;fontSize=17;" edge="1" parent="1" source="yHmcafbxzyrADyAFOcyu-33">
          <mxGeometry relative="1" as="geometry">
            <mxPoint x="380" y="260" as="targetPoint" />
          </mxGeometry>
        </mxCell>
        <mxCell id="yHmcafbxzyrADyAFOcyu-33" value="订单管理" style="rounded=0;whiteSpace=wrap;html=1;fontSize=17;" vertex="1" parent="1">
          <mxGeometry x="180" y="320" width="30" height="170" as="geometry" />
        </mxCell>
        <mxCell id="yHmcafbxzyrADyAFOcyu-35" style="edgeStyle=orthogonalEdgeStyle;shape=link;rounded=0;orthogonalLoop=1;jettySize=auto;html=1;exitX=0.5;exitY=0;exitDx=0;exitDy=0;entryX=0.5;entryY=1;entryDx=0;entryDy=0;fontSize=17;" edge="1" parent="1" source="yHmcafbxzyrADyAFOcyu-34" target="yHmcafbxzyrADyAFOcyu-2">
          <mxGeometry relative="1" as="geometry" />
        </mxCell>
        <mxCell id="yHmcafbxzyrADyAFOcyu-34" value="管理员认证" style="rounded=0;whiteSpace=wrap;html=1;fontSize=17;" vertex="1" parent="1">
          <mxGeometry x="130" y="320" width="30" height="170" as="geometry" />
        </mxCell>
      </root>
    </mxGraphModel>
  </diagram>
</mxfile>
